<?xml version="1.0" encoding="utf-8"?>
<!-- Generator: Adobe Illustrator 19.2.1, SVG Export Plug-In . SVG Version: 6.00 Build 0)  -->
<svg version="1.1" id="Calque_2" xmlns="http://www.w3.org/2000/svg" xmlns:xlink="http://www.w3.org/1999/xlink" x="0px" y="0px"
	 viewBox="0 0 453.5 283.5" style="enable-background:new 0 0 453.5 283.5;" xml:space="preserve">
<style type="text/css">
	.st0{fill:#000000;}
</style>
<path class="st0" d="M329.3,223.2V81.7l-112-66v207.5h-14.5v-188l-12,2.3v185.7h-2h-7.3V39.9v-0.5l-1,0.2l-51.7-17.8v27.9v173.6
	H77.4H27.8v3.8h404v-3.8H329.3z M170.8,41.4v181.8h-9.3v-180L170.8,41.4z M140.1,47.4l9.3-1.8v177.6h-9.3V47.4z"/>
<g>
	<path d="M27.8,239.1h7c2.8,0,4.5,0.5,5.7,1.4c1.7,1.2,2.3,3.1,2.3,5c0,3.3-2,4.8-4.3,5.3c4,1,5.6,3.6,5.6,6.6
		c0,2.5-1.1,4.4-2.9,5.6c-1.2,1-3.2,1.6-5.4,1.6h-7.9V239.1z M31.7,249.8h2.6c1.2,0,2.2-0.2,2.8-0.7c1.2-0.8,1.5-1.9,1.5-3.2
		c0-1.5-0.7-2.6-1.5-3.1c-0.6-0.4-1.5-0.7-3.3-0.7h-2.2V249.8z M31.7,261.6h3.2c1.5,0,2.6-0.2,3.3-0.7c1.2-0.6,1.8-1.8,1.8-3.6
		c0-1.7-0.7-3-1.9-3.7c-0.8-0.6-1.9-0.8-3.5-0.8h-3V261.6z"/>
	<path d="M48.2,239.1h3.9v25.5h-3.9V239.1z"/>
	<path d="M57.3,239.1h7c2.8,0,4.5,0.5,5.7,1.4c1.7,1.2,2.3,3.1,2.3,5c0,3.3-2,4.8-4.3,5.3c4,1,5.6,3.6,5.6,6.6
		c0,2.5-1.1,4.4-2.9,5.6c-1.2,1-3.2,1.6-5.4,1.6h-7.9V239.1z M61.2,249.8h2.6c1.2,0,2.2-0.2,2.8-0.7c1.2-0.8,1.5-1.9,1.5-3.2
		c0-1.5-0.7-2.6-1.5-3.1c-0.6-0.4-1.5-0.7-3.3-0.7h-2.2V249.8z M61.2,261.6h3.2c1.5,0,2.6-0.2,3.3-0.7c1.2-0.6,1.8-1.8,1.8-3.6
		c0-1.7-0.7-3-1.9-3.7c-0.8-0.6-1.9-0.8-3.5-0.8h-3V261.6z"/>
	<path d="M77.8,239.1h3.9v22.4h8.8v3.1H77.8V239.1z"/>
	<path d="M94,239.1h3.9v25.5H94V239.1z"/>
	<path d="M101.9,251.8c0-7.6,3.6-13.2,10.7-13.2c7.1,0,10.7,5.6,10.7,13.2c0,7-3.2,13.2-10.7,13.2
		C105.5,265.1,101.9,259.5,101.9,251.8L101.9,251.8z M105.9,251.9c0,6.7,2.5,10.1,6.7,10.1c4.2,0,6.6-3.4,6.6-10.1
		c0-6.7-2.5-10.1-6.6-10.1C108.4,241.8,105.9,245.1,105.9,251.9L105.9,251.9z"/>
	<path d="M129.5,242.2h-5.6v-3.1H139v3.1h-5.6v22.4h-3.9V242.2z"/>
	<path d="M142.4,264.6v-25.5h3.9v10.8h9.4v-10.8h4v25.5h-4V253h-9.4v11.6H142.4z"/>
	<path d="M165,239.1h13.9v3.1h-10v7.7h10v3.1h-10v8.4h10v3.1H165V239.1z"/>
	<path d="M204.4,265c-0.4,0-0.7,0.1-1.1,0.1c-1.7,0-3.1-0.5-4.3-1.6c-1.3,0.9-3.4,1.6-5.6,1.6c-7.1,0-10.7-5.6-10.7-13.2
		s3.6-13.2,10.7-13.2c7.1,0,10.7,5.6,10.7,13.2c0,3.9-1,7.1-2.6,9.2c0.8,0.8,1.8,0.9,2.9,0.8V265z M193.4,241.8
		c-4.1,0-6.6,3.4-6.6,10.1c0,1.9,0.4,3.2,0.6,3.9c1.1-0.6,2.5-1.1,4.2-1.1c1.3,0,2.5,0.3,3.7,1c1.1,0.7,2.3,1.7,3.4,2.8
		c0.7-1,1.5-3.4,1.5-6.6C200.1,245.2,197.6,241.8,193.4,241.8L193.4,241.8z M193.5,262c1.1,0,2.3-0.2,3.4-1.1
		c-0.7-0.8-1.4-1.6-2.4-2.2c-1-0.6-2.1-1-3.6-1c-1.1,0-2.1,0.3-2.9,0.9C188.9,260.5,190.7,262,193.5,262L193.5,262z"/>
	<path d="M212,239.1v18.2c0,1.4,0.2,2.6,1.3,3.5c0.9,0.8,2.2,1.1,3.6,1.1c1.4,0,2.8-0.3,3.6-1.1c1-0.9,1.3-2.1,1.3-3.5v-18.2h3.9
		v18.6c0,2.4-0.6,4.1-2.1,5.3c-1.4,1.3-3.6,2-6.7,2c-3.1,0-5.3-0.8-6.7-2c-1.5-1.3-2.1-3-2.1-5.3v-18.6H212z"/>
	<path d="M231,239.1h13.9v3.1h-10v7.7h10v3.1h-10v8.4h10v3.1H231V239.1z"/>
	<path d="M266.4,239.1c3.2,0,5.4,0.5,7.2,1.9c1.7,1.3,2.8,3.5,2.8,6c0,2.5-1.1,4.7-2.8,6c-1.8,1.3-4,1.9-7.2,1.9H264v9.8H260v-25.5
		H266.4z M264,251.7h2.5c2.2,0,3.4-0.2,4.5-1.1c0.9-0.7,1.5-2,1.5-3.6c0-1.6-0.6-3-1.5-3.7c-1.1-0.8-2.3-1.1-4.5-1.1H264V251.7z"/>
	<path d="M278.8,251.8c0-7.6,3.6-13.2,10.7-13.2s10.7,5.6,10.7,13.2c0,7-3.2,13.2-10.7,13.2C282.4,265.1,278.8,259.5,278.8,251.8
		L278.8,251.8z M282.8,251.9c0,6.7,2.5,10.1,6.7,10.1s6.6-3.4,6.6-10.1c0-6.7-2.5-10.1-6.6-10.1S282.8,245.1,282.8,251.9
		L282.8,251.9z"/>
	<path d="M308,239.1v18.2c0,1.4,0.2,2.6,1.3,3.5c0.9,0.8,2.2,1.1,3.6,1.1c1.4,0,2.8-0.3,3.6-1.1c1-0.9,1.3-2.1,1.3-3.5v-18.2h3.9
		v18.6c0,2.4-0.6,4.1-2.1,5.3c-1.4,1.3-3.6,2-6.7,2c-3.1,0-5.3-0.8-6.7-2c-1.5-1.3-2.1-3-2.1-5.3v-18.6H308z"/>
	<path d="M326.8,239.1h6.2c4.3,0,6.3,0.8,7.5,1.7c1.8,1.4,2.8,3.5,2.8,6.1c0,1.5-0.3,3.1-1.2,4.4c-1,1.6-2.6,2.7-4.5,3.1l5.8,10.2
		H339l-6.5-12.2c0.5,0,0.8,0,1.1,0c1.7,0,3-0.4,4.1-1.3c1.1-0.9,1.6-2.4,1.6-3.8c0-1.6-0.4-3.2-1.9-4.2c-1.1-0.7-2.8-0.8-4.5-0.8
		h-2.2v22.4h-3.9V239.1z"/>
	<path d="M357.4,242.2h-5.6v-3.1h15.1v3.1h-5.6v22.4h-3.9V242.2z"/>
	<path d="M367.6,251.8c0-7.6,3.6-13.2,10.7-13.2c7.1,0,10.7,5.6,10.7,13.2c0,7-3.2,13.2-10.7,13.2
		C371.2,265.1,367.6,259.5,367.6,251.8L367.6,251.8z M371.6,251.9c0,6.7,2.5,10.1,6.7,10.1c4.2,0,6.6-3.4,6.6-10.1
		c0-6.7-2.5-10.1-6.6-10.1C374,241.8,371.6,245.1,371.6,251.9L371.6,251.9z"/>
	<path d="M396.7,239.1v18.2c0,1.4,0.2,2.6,1.3,3.5c0.9,0.8,2.2,1.1,3.6,1.1c1.4,0,2.8-0.3,3.6-1.1c1-0.9,1.3-2.1,1.3-3.5v-18.2h3.9
		v18.6c0,2.4-0.6,4.1-2.1,5.3c-1.4,1.3-3.6,2-6.7,2c-3.1,0-5.3-0.8-6.7-2c-1.5-1.3-2.1-3-2.1-5.3v-18.6H396.7z"/>
	<path d="M418.1,257.3c0.3,3.6,2.5,4.8,4.8,4.8c2.8,0,4.9-1.7,4.9-4.3c0-3.3-3.5-4.1-6.4-5c-2.7-0.9-6.6-2.2-6.6-6.8
		c0-4.6,3.2-7.4,8.1-7.4c4.7,0,7.6,2.1,8.3,6.7h-3.8c-0.2-1.9-1.3-3.9-4.3-3.9c-2.6,0-4.2,1.7-4.2,4c0,3.1,3,3.8,6.5,4.8
		c2.6,0.8,6.5,2.3,6.5,7.3c0,4.6-3.8,7.5-8.9,7.5c-5.2,0-8.5-2.7-8.7-7.8H418.1z"/>
</g>
</svg>
